<?xml version="1.0" standalone="no"?>
<!DOCTYPE svg PUBLIC "-//W3C//DTD SVG 20010904//EN"
 "http://www.w3.org/TR/2001/REC-SVG-20010904/DTD/svg10.dtd">
<svg version="1.0" xmlns="http://www.w3.org/2000/svg"
 width="768.000000pt" height="768.000000pt" viewBox="0 0 768.000000 768.000000"
 preserveAspectRatio="xMidYMid meet">
<metadata>
Created by potrace 1.14, written by Peter Selinger 2001-2017
</metadata>
<g transform="translate(0.000000,768.000000) scale(0.100000,-0.100000)"
fill="#000000" stroke="none">
<path d="M1440 3760 l0 -240 160 0 160 0 0 -80 0 -80 -160 0 -160 0 0 -80 0
-80 240 0 240 0 0 240 0 240 -160 0 -160 0 0 80 0 80 160 0 160 0 0 80 0 80
-240 0 -240 0 0 -240z"/>
<path d="M2880 3760 l0 -80 -80 0 -80 0 0 -240 0 -240 80 0 80 0 0 -80 0 -80
80 0 80 0 0 80 0 80 -80 0 -80 0 0 80 0 80 160 0 160 0 0 160 0 160 -80 0 -80
0 0 80 0 80 -80 0 -80 0 0 -80z m160 -160 l0 -80 -80 0 -80 0 0 80 0 80 80 0
80 0 0 -80z"/>
<path d="M4000 3760 l0 -80 -80 0 -80 0 0 -80 0 -80 80 0 80 0 0 -160 0 -160
80 0 80 0 0 160 0 160 80 0 80 0 0 80 0 80 -80 0 -80 0 0 80 0 80 -80 0 -80 0
0 -80z"/>
<path d="M4480 3520 l0 -320 80 0 80 0 0 160 0 160 80 0 80 0 0 80 0 80 80 0
80 0 0 -240 0 -240 240 0 240 0 0 240 0 240 -80 0 -80 0 0 -160 0 -160 -80 0
-80 0 0 160 0 160 -80 0 -80 0 0 80 0 80 -80 0 -80 0 0 -80 0 -80 -80 0 -80 0
0 80 0 80 -80 0 -80 0 0 -320z"/>
<path d="M5600 3520 l0 -320 80 0 80 0 0 160 0 160 80 0 80 0 0 -160 0 -160
80 0 80 0 0 160 0 160 80 0 80 0 0 -160 0 -160 80 0 80 0 0 160 0 160 -80 0
-80 0 0 80 0 80 -240 0 -240 0 0 80 0 80 -80 0 -80 0 0 -320z"/>
<path d="M2080 3280 l0 -400 80 0 80 0 0 160 0 160 160 0 160 0 0 160 0 160
-80 0 -80 0 0 80 0 80 -160 0 -160 0 0 -400z m320 160 l0 -80 -80 0 -80 0 0
80 0 80 80 0 80 0 0 -80z"/>
<path d="M3360 3440 l0 -240 160 0 160 0 0 80 0 80 -80 0 -80 0 0 80 0 80 80
0 80 0 0 80 0 80 -160 0 -160 0 0 -240z"/>
<path d="M1120 3280 l0 -80 80 0 80 0 0 80 0 80 -80 0 -80 0 0 -80z"/>
</g>
</svg>
